<svg width="344" height="200" viewBox="0 0 344 200" fill="none" xmlns="http://www.w3.org/2000/svg">
<rect width="344" height="200" rx="10" fill="#0A0A0A"/>
<rect x="0.5" y="0.5" width="343" height="199" rx="9.5" stroke="white" stroke-opacity="0.1"/>
<rect x="126" y="20" width="92" height="16" rx="4" fill="#404040"/>
<rect x="68" y="67" width="68" height="58" rx="9" fill="#171717"/>
<rect x="73" y="72" width="14" height="14" rx="4" fill="#404040"/>
<rect x="73" y="105" width="43" height="6" rx="2" fill="#262626"/>
<rect x="73" y="94" width="43" height="6" rx="2" fill="#404040"/>
<rect x="73" y="113" width="50" height="6" rx="2" fill="#262626"/>
<rect x="140" y="67" width="68" height="58" rx="9" fill="#171717"/>
<rect x="145" y="72" width="14" height="14" rx="4" fill="#404040"/>
<rect x="145" y="105" width="43" height="6" rx="2" fill="#262626"/>
<rect x="145" y="94" width="43" height="6" rx="2" fill="#404040"/>
<rect x="145" y="113" width="50" height="6" rx="2" fill="#262626"/>
<rect x="212" y="67" width="68" height="58" rx="9" fill="#171717"/>
<rect x="217" y="72" width="14" height="14" rx="4" fill="#404040"/>
<rect x="217" y="105" width="43" height="6" rx="2" fill="#262626"/>
<rect x="217" y="94" width="43" height="6" rx="2" fill="#404040"/>
<rect x="217" y="113" width="50" height="6" rx="2" fill="#262626"/>
<rect x="68" y="129" width="68" height="58" rx="9" fill="#171717"/>
<rect x="73" y="134" width="14" height="14" rx="4" fill="#404040"/>
<rect x="73" y="167" width="43" height="6" rx="2" fill="#262626"/>
<rect x="73" y="156" width="43" height="6" rx="2" fill="#404040"/>
<rect x="73" y="175" width="50" height="6" rx="2" fill="#262626"/>
<rect x="140" y="129" width="68" height="58" rx="9" fill="#171717"/>
<rect x="145" y="134" width="14" height="14" rx="4" fill="#404040"/>
<rect x="145" y="167" width="43" height="6" rx="2" fill="#262626"/>
<rect x="145" y="156" width="43" height="6" rx="2" fill="#404040"/>
<rect x="145" y="175" width="50" height="6" rx="2" fill="#262626"/>
<rect x="212" y="129" width="68" height="58" rx="9" fill="#171717"/>
<rect x="217" y="134" width="14" height="14" rx="4" fill="#404040"/>
<rect x="217" y="167" width="43" height="6" rx="2" fill="#262626"/>
<rect x="217" y="156" width="43" height="6" rx="2" fill="#404040"/>
<rect x="217" y="175" width="50" height="6" rx="2" fill="#262626"/>
</svg>
