<svg width="344" height="200" viewBox="0 0 344 200" fill="none" xmlns="http://www.w3.org/2000/svg">
<rect width="344" height="200" rx="10" fill="#0A0A0A"/>
<rect x="0.5" y="0.5" width="343" height="199" rx="9.5" stroke="white" stroke-opacity="0.1"/>
<rect x="126" y="20" width="92" height="16" rx="4" fill="#404040"/>
<rect x="30.5" y="106.5" width="11" height="11" rx="5.5" fill="#404040"/>
<rect x="45.5" y="108" width="43" height="8" rx="2" fill="#404040"/>
<rect x="105.5" y="106.5" width="11" height="11" rx="5.5" fill="#404040"/>
<rect x="120.5" y="108" width="43" height="8" rx="2" fill="#404040"/>
<rect x="180.5" y="106.5" width="11" height="11" rx="5.5" fill="#404040"/>
<rect x="195.5" y="108" width="43" height="8" rx="2" fill="#404040"/>
<rect x="255.5" y="106.5" width="11" height="11" rx="5.5" fill="#404040"/>
<rect x="270.5" y="108" width="43" height="8" rx="2" fill="#404040"/>
<rect x="30.5" y="134.5" width="11" height="11" rx="5.5" fill="#404040"/>
<rect x="45.5" y="136" width="43" height="8" rx="2" fill="#404040"/>
<rect x="105.5" y="134.5" width="11" height="11" rx="5.5" fill="#404040"/>
<rect x="120.5" y="136" width="43" height="8" rx="2" fill="#404040"/>
<rect x="180.5" y="134.5" width="11" height="11" rx="5.5" fill="#404040"/>
<rect x="195.5" y="136" width="43" height="8" rx="2" fill="#404040"/>
<rect x="255.5" y="134.5" width="11" height="11" rx="5.5" fill="#404040"/>
<rect x="270.5" y="136" width="43" height="8" rx="2" fill="#404040"/>
<rect x="114" y="46" width="116" height="8" rx="2" fill="#262626"/>
<rect x="106" y="57" width="131" height="8" rx="2" fill="#262626"/>
</svg>
