<svg width="344" height="200" viewBox="0 0 344 200" fill="none" xmlns="http://www.w3.org/2000/svg">
<rect width="344" height="200" rx="10" fill="#0A0A0A"/>
<rect x="0.5" y="0.5" width="343" height="199" rx="9.5" stroke="white" stroke-opacity="0.1"/>
<rect x="126" y="20" width="92" height="16" rx="4" fill="#404040"/>
<rect x="28" y="71" width="88" height="114" rx="9" fill="#171717"/>
<rect x="28.5" y="71.5" width="87" height="113" rx="8.5" stroke="white" stroke-opacity="0.1"/>
<rect x="59" y="82" width="26" height="6" rx="2" fill="#262626"/>
<rect x="55" y="95" width="34" height="16" rx="4" fill="#404040"/>
<rect x="50.5" y="129" width="43" height="6" rx="2" fill="#262626"/>
<rect x="47" y="139" width="50" height="6" rx="2" fill="#262626"/>
<rect x="52.5" y="149" width="39" height="6" rx="2" fill="#262626"/>
<rect x="45" y="163" width="54" height="11" rx="3" fill="#404040"/>
<rect x="128" y="71" width="88" height="114" rx="9" fill="#171717"/>
<rect x="128.5" y="71.5" width="87" height="113" rx="8.5" stroke="white" stroke-opacity="0.1"/>
<rect x="162" y="82" width="20" height="6" rx="2" fill="#262626"/>
<rect x="155" y="95" width="34" height="16" rx="4" fill="#404040"/>
<rect x="150.5" y="129" width="43" height="6" rx="2" fill="#262626"/>
<rect x="147" y="139" width="50" height="6" rx="2" fill="#262626"/>
<rect x="152.5" y="149" width="39" height="6" rx="2" fill="#262626"/>
<rect x="145" y="163" width="54" height="11" rx="3" fill="#404040"/>
<rect x="228" y="71" width="88" height="114" rx="9" fill="#171717"/>
<rect x="228.5" y="71.5" width="87" height="113" rx="8.5" stroke="white" stroke-opacity="0.1"/>
<rect x="259" y="82" width="26" height="6" rx="2" fill="#262626"/>
<rect x="255" y="95" width="34" height="16" rx="4" fill="#404040"/>
<rect x="250.5" y="129" width="43" height="6" rx="2" fill="#262626"/>
<rect x="247" y="139" width="50" height="6" rx="2" fill="#262626"/>
<rect x="252.5" y="149" width="39" height="6" rx="2" fill="#262626"/>
<rect x="245" y="163" width="54" height="11" rx="3" fill="#404040"/>
</svg>
